<?xml version="1.0" encoding="UTF-8"?>
<!--
Font Awesome Free 6.2.1 by @fontawesome - https://fontawesome.com
License - https://fontawesome.com/license/free (Icons: CC BY 4.0, Fonts: SIL OFL 1.1, Code: MIT License)
Copyright 2022 Fonticons, Inc.
-->
<svg xmlns="http://www.w3.org/2000/svg" style="display: none;">
  <symbol id="circle-plus" viewBox="0 0 512 512">
    <path d="M256 512c141.4 0 256-114.6 256-256S397.4 0 256 0S0 114.6 0 256S114.6 512 256 512zM232 344V280H168c-13.3 0-24-10.7-24-24s10.7-24 24-24h64V168c0-13.3 10.7-24 24-24s24 10.7 24 24v64h64c13.3 0 24 10.7 24 24s-10.7 24-24 24H280v64c0 13.3-10.7 24-24 24s-24-10.7-24-24z"/>
  </symbol>
  <symbol id="pen-to-square" viewBox="0 0 512 512">
    <path d="M373.1 24.97C401.2-3.147 446.8-3.147 474.9 24.97L487 37.09C515.1 65.21 515.1 110.8 487 138.9L289.8 336.2C281.1 344.8 270.4 351.1 258.6 354.5L158.6 383.1C150.2 385.5 141.2 383.1 135 376.1C128.9 370.8 126.5 361.8 128.9 353.4L157.5 253.4C160.9 241.6 167.2 230.9 175.8 222.2L373.1 24.97zM440.1 58.91C431.6 49.54 416.4 49.54 407 58.91L377.9 88L424 134.1L453.1 104.1C462.5 95.6 462.5 80.4 453.1 71.03L440.1 58.91zM203.7 266.6L186.9 325.1L245.4 308.3C249.4 307.2 252.9 305.1 255.8 302.2L390.1 168L344 121.9L209.8 256.2C206.9 259.1 204.8 262.6 203.7 266.6zM200 64C213.3 64 224 74.75 224 88C224 101.3 213.3 112 200 112H88C65.91 112 48 129.9 48 152V424C48 446.1 65.91 464 88 464H360C382.1 464 400 446.1 400 424V312C400 298.7 410.7 288 424 288C437.3 288 448 298.7 448 312V424C448 472.6 408.6 512 360 512H88C39.4 512 0 472.6 0 424V152C0 103.4 39.4 64 88 64H200z" />
  </symbol>
  <symbol id="square-check" viewBox="0 -32 512 512">
    <path d="M211.8 339.8C200.9 350.7 183.1 350.7 172.2 339.8L108.2 275.8C97.27 264.9 97.27 247.1 108.2 236.2C119.1 225.3 136.9 225.3 147.8 236.2L192 280.4L300.2 172.2C311.1 161.3 328.9 161.3 339.8 172.2C350.7 183.1 350.7 200.9 339.8 211.8L211.8 339.8zM0 96C0 60.65 28.65 32 64 32H384C419.3 32 448 60.65 448 96V416C448 451.3 419.3 480 384 480H64C28.65 480 0 451.3 0 416V96zM48 96V416C48 424.8 55.16 432 64 432H384C392.8 432 400 424.8 400 416V96C400 87.16 392.8 80 384 80H64C55.16 80 48 87.16 48 96z"/>
  </symbol>
  <symbol id="trash-can" viewBox="0 0 512 512">
    <path d="M160 400C160 408.8 152.8 416 144 416C135.2 416 128 408.8 128 400V192C128 183.2 135.2 176 144 176C152.8 176 160 183.2 160 192V400zM240 400C240 408.8 232.8 416 224 416C215.2 416 208 408.8 208 400V192C208 183.2 215.2 176 224 176C232.8 176 240 183.2 240 192V400zM320 400C320 408.8 312.8 416 304 416C295.2 416 288 408.8 288 400V192C288 183.2 295.2 176 304 176C312.8 176 320 183.2 320 192V400zM317.5 24.94L354.2 80H424C437.3 80 448 90.75 448 104C448 117.3 437.3 128 424 128H416V432C416 476.2 380.2 512 336 512H112C67.82 512 32 476.2 32 432V128H24C10.75 128 0 117.3 0 104C0 90.75 10.75 80 24 80H93.82L130.5 24.94C140.9 9.357 158.4 0 177.1 0H270.9C289.6 0 307.1 9.358 317.5 24.94H317.5zM151.5 80H296.5L277.5 51.56C276 49.34 273.5 48 270.9 48H177.1C174.5 48 171.1 49.34 170.5 51.56L151.5 80zM80 432C80 449.7 94.33 464 112 464H336C353.7 464 368 449.7 368 432V128H80V432z" />
  </symbol>



</svg>
