<svg version="1.1" xmlns="http://www.w3.org/2000/svg" viewBox="0 0 803.6666305886548 586.818745193543" width="803.6666305886548" height="586.818745193543">
  <!-- svg-source:excalidraw -->
  
  <defs>
    <style class="style-fonts">
      @font-face {
        font-family: "Virgil";
        src: url("https://excalidraw.com/Virgil.woff2");
      }
      @font-face {
        font-family: "Cascadia";
        src: url("https://excalidraw.com/Cascadia.woff2");
      }
    </style>
  </defs>
  <rect x="0" y="0" width="803.6666305886548" height="586.818745193543" fill="#ffffff"></rect><g stroke-linecap="round" transform="translate(286.0443661740231 504.818745193543) rotate(0 76.5 36)"><path d="M-0.06 0.59 C30.89 -3.41, 62.13 -2.91, 151.05 1.96 M-0.57 -0.91 C40.23 0.53, 81.02 0.73, 153 0.4 M152.5 -0.35 C154.24 22.82, 153.12 47.52, 153.22 73.75 M152.48 -0.34 C152.2 20.66, 152.41 40.82, 153.25 72 M152.78 72.11 C116.08 72.38, 77.91 72.49, 1 70.84 M153.06 71.08 C101.12 71.96, 47.06 71.57, -0.82 71.75 M0.23 73.92 C0.97 55.39, -0.05 38.76, 1.98 -1.35 M0.07 71.35 C0.59 53.94, 1.29 36.29, -0.44 0.98" stroke="#000000" stroke-width="1" fill="none"></path></g><g transform="translate(305.0443661740231 530.818745193543) rotate(0 57.5 9.5)"><text x="57.5" y="15" font-family="Cascadia, Segoe UI Emoji" font-size="16px" fill="#000000" text-anchor="middle" style="white-space: pre;" direction="ltr">ShoppingCart</text></g><g mask="url(#mask-xzECzPEjo6u5SuryC_qNQ)" stroke-linecap="round"><g transform="translate(379.2530838901042 365.12445510433076) rotate(0 1.1865565274280812 64.02439331048916)"><path d="M-0.55 -0.66 C-0.45 20.99, 0.45 107.19, 0.59 128.7 M1.36 1.62 C1.85 23.02, 2.7 106.19, 2.92 126.98" stroke="#000000" stroke-width="1" fill="none"></path></g><g transform="translate(379.2530838901042 365.12445510433076) rotate(0 1.1865565274280812 64.02439331048916)"><path d="M-8.73 97.68 C-3.48 105.7, -0.75 116.65, 1.73 127.64 M-7.42 99.42 C-4.43 105.65, -3.78 112.19, 3.18 126.61" stroke="#000000" stroke-width="1" fill="none"></path></g><g transform="translate(379.2530838901042 365.12445510433076) rotate(0 1.1865565274280812 64.02439331048916)"><path d="M11.79 97.47 C10.88 105.45, 7.46 116.47, 1.73 127.64 M13.1 99.2 C11.35 105.34, 7.27 111.94, 3.18 126.61" stroke="#000000" stroke-width="1" fill="none"></path></g></g><mask id="mask-xzECzPEjo6u5SuryC_qNQ"><rect x="0" y="0" fill="#fff" width="480.5756941930717" height="593.0703586516215"></rect><rect x="322.9143890415879" y="410.09740687797614" fill="#000" width="114" height="38" opacity="1"></rect></mask><g transform="translate(322.914389041588 410.09740687797614) rotate(0 57.52525137594435 19.051441536843782)"><text x="57" y="15" font-family="Cascadia, Segoe UI Emoji" font-size="16px" fill="#000000" text-anchor="middle" style="white-space: pre;" direction="ltr">cartProducts</text><text x="57" y="34" font-family="Cascadia, Segoe UI Emoji" font-size="16px" fill="#000000" text-anchor="middle" style="white-space: pre;" direction="ltr">onChange</text></g><g stroke-linecap="round" transform="translate(295.7483970054086 266.8711967063914) rotate(0 92.5 43)"><path d="M1.49 0.8 C39.97 -2.68, 82.71 -2.27, 183.87 1.61 M-0.9 -0.23 C55.12 0, 110.41 -0.15, 185.37 0.69 M186.66 1.31 C184.81 30.77, 183.86 64.44, 183.18 85.41 M185.43 -0.87 C184.9 19.11, 184.9 39.39, 185.39 86.29 M184.73 85.39 C147.97 86.21, 108.57 88.14, -0.3 85.26 M184.83 85.37 C145.29 87.65, 104.48 86.12, -0.06 85.28 M0.06 87.07 C-1.52 62.67, -1.59 38, -0.04 -1.37 M0.26 86.95 C1.62 59.53, 0.06 32.46, 0.81 0.45" stroke="#000000" stroke-width="1" fill="none"></path></g><g transform="translate(330.7483970054086 281.3711967063914) rotate(0 57.5 28.5)"><text x="57.5" y="15" font-family="Cascadia, Segoe UI Emoji" font-size="16px" fill="#000000" text-anchor="middle" style="white-space: pre;" direction="ltr">Catalog</text><text x="57.5" y="34" font-family="Cascadia, Segoe UI Emoji" font-size="16px" fill="#000000" text-anchor="middle" style="white-space: pre;" direction="ltr"></text><text x="57.5" y="53" font-family="Cascadia, Segoe UI Emoji" font-size="16px" fill="#000000" text-anchor="middle" style="white-space: pre;" direction="ltr">cartProducts</text></g><g stroke-linecap="round" transform="translate(10 379.3006736804738) rotate(0 64.86670384981926 31.053209289807114)"><path d="M0.2 -1.42 C28.69 -1.78, 55.61 -0.17, 127.77 -0.14 M128.38 -0.2 C131 23.74, 129.59 45.72, 130.85 60.2 M130.1 62.4 C87.3 62.72, 49.38 61.72, 1.08 63.21 M1.59 60.37 C-1.19 44.44, -1.74 25.67, 0.77 -0.93" stroke="#000000" stroke-width="1.5" fill="none" stroke-dasharray="8 9"></path></g><g transform="translate(40.86670384981926 400.8538829702809) rotate(0 34 9.5)"><text x="34" y="15" font-family="Cascadia, Segoe UI Emoji" font-size="16px" fill="#000000" text-anchor="middle" style="white-space: pre;" direction="ltr">storage</text></g><g mask="url(#mask-4y9IeED1e2BtA86YjxwDb)" stroke-linecap="round"><g transform="translate(153.6548007521821 439.4516592396494) rotate(0 58.49470537720997 47.72858274951426)"><path d="M-0.75 0.14 C18.74 16.23, 97.95 79.64, 117.74 95.32" stroke="#000000" stroke-width="1.5" fill="none" stroke-dasharray="8 9"></path></g><g transform="translate(153.6548007521821 439.4516592396494) rotate(0 58.49470537720997 47.72858274951426)"><path d="M27.88 8.08 C18.24 4.7, 5.86 1.13, 1.25 1.86" stroke="#000000" stroke-width="1.5" fill="none"></path></g><g transform="translate(153.6548007521821 439.4516592396494) rotate(0 58.49470537720997 47.72858274951426)"><path d="M15.01 24.06 C10.28 14.87, 2.64 5.4, 1.25 1.86" stroke="#000000" stroke-width="1.5" fill="none"></path></g><g transform="translate(153.6548007521821 439.4516592396494) rotate(0 58.49470537720997 47.72858274951426)"><path d="M89.54 84.01 C100.67 88.08, 109.25 91.61, 119.73 97.03" stroke="#000000" stroke-width="1.5" fill="none"></path></g><g transform="translate(153.6548007521821 439.4516592396494) rotate(0 58.49470537720997 47.72858274951426)"><path d="M102.33 67.96 C108.58 77.88, 112.44 87.32, 119.73 97.03" stroke="#000000" stroke-width="1.5" fill="none"></path></g></g><mask id="mask-4y9IeED1e2BtA86YjxwDb"><rect x="0" y="0" fill="#fff" width="372.4451784161298" height="634.18251455408"></rect><rect x="155.54998958415595" y="477.3170868968647" fill="#000" width="115" height="19" opacity="1"></rect></mask><g transform="translate(155.54998958415598 477.3170868968647) rotate(0 56.59951654523611 9.863155092298996)"><text x="57.5" y="15" font-family="Cascadia, Segoe UI Emoji" font-size="16px" fill="#000000" text-anchor="middle" style="white-space: pre;" direction="ltr">cartProducts</text></g><g stroke-linecap="round" transform="translate(256.86780009396034 10) rotate(0 110 43)"><path d="M1.36 -0.19 C44.7 2.61, 89.59 0.03, 219.95 -0.7 M-0.32 0.06 C87.05 0.13, 175.28 1.18, 220.04 0.78 M219.09 1.77 C220.46 28.35, 218.37 56.86, 219.46 87.53 M220.59 0.41 C218.85 27.08, 219.95 55.58, 220.87 86.19 M220.73 86.74 C156.67 86.46, 92.59 88.75, 0 86.3 M220.63 85.75 C174.25 86.98, 128.02 87.25, -0.4 85.88 M-1.03 87.95 C1.56 58.74, -0.18 31.78, 1.89 -1.29 M-0.72 86.15 C-0.1 63.58, -0.31 43.56, -0.76 -0.08" stroke="#000000" stroke-width="1" fill="none"></path></g><g transform="translate(295.86780009396034 24.5) rotate(0 71 28.5)"><text x="71" y="15" font-family="Cascadia, Segoe UI Emoji" font-size="16px" fill="#000000" text-anchor="middle" style="white-space: pre;" direction="ltr">FilteredCatalog</text><text x="71" y="34" font-family="Cascadia, Segoe UI Emoji" font-size="16px" fill="#000000" text-anchor="middle" style="white-space: pre;" direction="ltr"></text><text x="71" y="53" font-family="Cascadia, Segoe UI Emoji" font-size="16px" fill="#000000" text-anchor="middle" style="white-space: pre;" direction="ltr">filter</text></g><g stroke-linecap="round" transform="translate(646.6666305886548 264.3427886439965) rotate(0 73.5 38.5)"><path d="M-0.52 1.88 C54.28 1.66, 112.04 2.36, 145.48 -1.87 M-0.43 -0.14 C30.55 0.04, 59.8 0.49, 146.54 -0.38 M148.27 1.21 C147.24 23.43, 149.48 52.45, 145.22 76.98 M146.42 -0.05 C145.61 25.16, 146.21 49.38, 147.48 76.45 M146.98 76.79 C97.36 75.44, 50.62 76.52, -1.03 78.17 M147.49 76.08 C105.51 78.63, 64.97 77.49, -0.25 77.46 M-1.18 78.18 C2.34 52.72, -0.47 25.99, -0.15 0.96 M-0.64 77.89 C1.45 52.9, 1.55 29.6, 0.91 0.5" stroke="#000000" stroke-width="1" fill="none"></path></g><g transform="translate(691.1666305886548 292.8427886439965) rotate(0 29 10)"><text x="29" y="16" font-family="Cascadia, Segoe UI Emoji" font-size="16px" fill="#000000" text-anchor="middle" style="white-space: pre;" direction="ltr">Filter</text></g><g mask="url(#mask-3OhN6OMcfP8IN6j42YyDx)" stroke-linecap="round"><g transform="translate(376.9420995019552 108.77110186528569) rotate(0 -0.1369186164205871 72.84497829336759)"><path d="M-0.98 -0.57 C-0.97 23.65, -0.32 121.82, -0.41 146.26 M0.71 1.74 C0.67 25.55, -0.38 120.84, -0.91 144.57" stroke="#000000" stroke-width="1" fill="none"></path></g><g transform="translate(376.9420995019552 108.77110186528569) rotate(0 -0.1369186164205871 72.84497829336759)"><path d="M-11.69 117.65 C-6.6 123.24, -4.33 132.58, 0.78 143.06 M-10.73 116.42 C-8.06 125.97, -3.53 135.55, -0.12 144.49" stroke="#000000" stroke-width="1" fill="none"></path></g><g transform="translate(376.9420995019552 108.77110186528569) rotate(0 -0.1369186164205871 72.84497829336759)"><path d="M8.83 117.97 C8.55 123.31, 5.45 132.56, 0.78 143.06 M9.79 116.74 C5.32 126.38, 2.7 135.85, -0.12 144.49" stroke="#000000" stroke-width="1" fill="none"></path></g></g><mask id="mask-3OhN6OMcfP8IN6j42YyDx"><rect x="0" y="0" fill="#fff" width="478.21584395099285" height="354.22791280676006"></rect><rect x="337.8052272774364" y="171.99950733602284" fill="#000" width="77" height="19" opacity="1"></rect></mask><g transform="translate(337.8052272774364 171.99950733602282) rotate(0 38.99995360809825 9.616572822630431)"><text x="38.5" y="15" font-family="Cascadia, Segoe UI Emoji" font-size="16px" fill="#000000" text-anchor="middle" style="white-space: pre;" direction="ltr">products</text></g><g mask="url(#mask-n1VVQK_8xMraQ_FTSWWNu)" stroke-linecap="round"><g transform="translate(468.82123449932476 109.97682161589987) rotate(0 103.56897646498908 72.54381495669962)"><path d="M-0.23 0.72 C34.51 24.86, 174.05 119.96, 208.94 143.78 M-1.81 0.06 C32.78 24.44, 173.15 120.93, 208.24 145.03" stroke="#000000" stroke-width="1" fill="none"></path></g><g transform="translate(468.82123449932476 109.97682161589987) rotate(0 103.56897646498908 72.54381495669962)"><path d="M180.4 138.3 C188.11 141.28, 197.83 144.43, 209.1 143.96 M179.84 137.44 C187.41 139.26, 193.59 140.79, 208.05 145.41" stroke="#000000" stroke-width="1" fill="none"></path></g><g transform="translate(468.82123449932476 109.97682161589987) rotate(0 103.56897646498908 72.54381495669962)"><path d="M192.03 121.38 C195.63 130.11, 201.38 139.03, 209.1 143.96 M191.46 120.53 C196.02 126.63, 199.21 132.52, 208.05 145.41" stroke="#000000" stroke-width="1" fill="none"></path></g></g><mask id="mask-n1VVQK_8xMraQ_FTSWWNu"><rect x="0" y="0" fill="#fff" width="777.2979431357305" height="354.31495077685383"></rect><rect x="530.5595888175277" y="134.64588619637684" fill="#000" width="85" height="95" opacity="1"></rect></mask><g transform="translate(530.5595888175277 134.64588619637684) rotate(0 41.8306221467862 47.87475037622265)"><text x="42.5" y="15" font-family="Cascadia, Segoe UI Emoji" font-size="16px" fill="#000000" text-anchor="middle" style="white-space: pre;" direction="ltr">filter</text><text x="42.5" y="34" font-family="Cascadia, Segoe UI Emoji" font-size="16px" fill="#000000" text-anchor="middle" style="white-space: pre;" direction="ltr">companies</text><text x="42.5" y="53" font-family="Cascadia, Segoe UI Emoji" font-size="16px" fill="#000000" text-anchor="middle" style="white-space: pre;" direction="ltr">minPrice</text><text x="42.5" y="72" font-family="Cascadia, Segoe UI Emoji" font-size="16px" fill="#000000" text-anchor="middle" style="white-space: pre;" direction="ltr">maxPrice</text><text x="42.5" y="91" font-family="Cascadia, Segoe UI Emoji" font-size="16px" fill="#000000" text-anchor="middle" style="white-space: pre;" direction="ltr">onChange</text></g><g mask="url(#mask-xt232_5py0sZrEoO12c6R)" stroke-linecap="round"><g transform="translate(129.58071824785804 180.19953072339618) rotate(0 55.09999876644384 -61.673955699892595)"><path d="M0.29 -1.13 C18.25 -21.7, 90.73 -104.05, 108.99 -124.24 M-1.02 0.89 C17.21 -19.5, 92.88 -102.43, 111.22 -123.28" stroke="#000000" stroke-width="1" fill="none"></path></g><g transform="translate(129.58071824785804 180.19953072339618) rotate(0 55.09999876644384 -61.673955699892595)"><path d="M98.13 -96.96 C102.85 -106.68, 110.57 -116.88, 110.1 -125.02 M100.36 -95.17 C103.88 -106.3, 108.12 -114.87, 110.86 -124.01" stroke="#000000" stroke-width="1" fill="none"></path></g><g transform="translate(129.58071824785804 180.19953072339618) rotate(0 55.09999876644384 -61.673955699892595)"><path d="M82.87 -110.67 C93.57 -114.96, 107.38 -119.7, 110.1 -125.02 M85.09 -108.89 C94.02 -115.24, 103.73 -118.9, 110.86 -124.01" stroke="#000000" stroke-width="1" fill="none"></path></g></g><mask id="mask-xt232_5py0sZrEoO12c6R"><rect x="0" y="0" fill="#fff" width="339.47559264133076" height="403.3436252942581"></rect><rect x="146.0281554445944" y="109.12748343796522" fill="#000" width="77" height="19" opacity="1"></rect></mask><g transform="translate(146.02815544459446 109.12748343796522) rotate(0 38.652561569707466 9.39809158553836)"><text x="38.5" y="15" font-family="Cascadia, Segoe UI Emoji" font-size="16px" fill="#000000" text-anchor="middle" style="white-space: pre;" direction="ltr">products</text></g><g stroke-linecap="round" transform="translate(11.230064018965322 187.81313673600786) rotate(0 56.5 35)"><path d="M-0.13 0.57 C32.8 -2.35, 62.73 1.21, 112.15 1.41 M114.34 1.15 C112.17 14.18, 111.31 29.87, 113.86 68.22 M112.55 69.26 C73.25 70.83, 37.06 70.23, -0.21 69.84 M0.8 71.69 C1.36 43.61, 1.04 20.34, -1.18 0.99" stroke="#000000" stroke-width="1.5" fill="none" stroke-dasharray="8 9"></path></g><g transform="translate(57.23006401896532 213.31313673600786) rotate(0 10.5 9.5)"><text x="10.5" y="15" font-family="Cascadia, Segoe UI Emoji" font-size="16px" fill="#000000" text-anchor="middle" style="white-space: pre;" direction="ltr">db</text></g></svg>